<svg width="27px" height="27px" id="logo-ringover" viewBox="0 -3 27 30" version="1.1" xmlns="http://www.w3.org/2000/svg"
	xmlns:xlink="http://www.w3.org/1999/xlink">
	<defs>
		<linearGradient x1="10.642537%" y1="10.7823457%" x2="96.4712916%" y2="100%" id="linearGradient-1">
			<stop stop-color="#40E0CF" offset="0%"></stop>
			<stop stop-color="#36CDCF" offset="100%"></stop>
		</linearGradient>
	</defs>
	<g id="logo" stroke="none" stroke-width="1" fill="none" fill-rule="evenodd">
		<g id="Artboard" transform="translate(-134.000000, -280.000000)">
			<g id="logo-line-color" transform="translate(134.000000, 280.000000)">
				<g id="Group-13" transform="translate(0.000000, 0.000000)">
					<g id="logo" transform="translate(0.000000, 0.000000)" fill="url(#linearGradient-1)">
						<g id="Group-Copy-3">
							<g id="Group-2" transform="translate(0.245620, 0.000000)">
								<path
									d="M12.7487636,26.0357143 C6.44286601,26.0357143 1.49207336,21.8112333 0.373650926,15.6875264 C0.359732676,15.6113197 0.34019606,15.4963529 0.315041079,15.342626 L6.56344993,15.3427385 C6.5908412,15.4348227 6.61183136,15.5034988 6.62642038,15.5487668 C7.55282415,18.4232847 10.0690497,19.9096639 12.7487636,19.9096639 C15.432939,19.9096639 17.9530813,18.4494006 18.8757208,15.5535215 C18.8904769,15.5072066 18.9116851,15.4369081 18.9393453,15.342626 L25.1824861,15.342626 C25.1615897,15.4711433 25.1454487,15.5673025 25.1340631,15.6311037 C24.0358226,21.7852691 19.0740099,26.0357143 12.7487636,26.0357143 Z M12.7487636,0 C19.3444301,0 24.4575906,4.57963363 25.2535401,11.1938247 C25.264946,11.2886056 25.2800508,11.4317085 25.2988544,11.6231335 L19.142136,11.6231335 C19.1243944,11.5144466 19.1105316,11.4333869 19.1005476,11.3799545 C18.4481121,7.88825231 15.697413,6.12605042 12.7487636,6.12605042 C9.83383355,6.12605042 7.11235238,7.84817927 6.42018275,11.2608445 C6.40413025,11.3399896 6.38253305,11.4607526 6.35539115,11.6231335 L0.198672699,11.6231335 C0.225874504,11.3543914 0.2482484,11.153762 0.265794389,11.0212454 C1.12923201,4.50010485 6.21061717,0 12.7487636,0 Z"
									id="Shape"></path>
							</g>
						</g>
					</g>
				</g>
			</g>
		</g>
	</g>
</svg>