<?xml version="1.0" standalone="no"?>
<!DOCTYPE svg PUBLIC "-//W3C//DTD SVG 20010904//EN"
 "http://www.w3.org/TR/2001/REC-SVG-20010904/DTD/svg10.dtd">
<svg version="1.0" xmlns="http://www.w3.org/2000/svg"
 width="928.000000pt" height="928.000000pt" viewBox="0 0 928.000000 928.000000"
 preserveAspectRatio="xMidYMid meet">
<metadata>
Created by potrace 1.14, written by Peter Selinger 2001-2017
</metadata>
<g transform="translate(0.000000,928.000000) scale(0.100000,-0.100000)"
fill="#000000" stroke="none">
<path d="M6957 9260 c-3 -11 -1 -22 3 -25 5 -3 5 -18 1 -33 -4 -15 -4 -39 0
-54 4 -18 3 -28 -3 -28 -7 0 -7 -5 -1 -12 10 -15 11 -2263 1 -2274 -4 -3 -3
-17 2 -30 6 -14 6 -26 0 -29 -5 -3 -6 -15 -1 -28 5 -12 5 -31 1 -43 -5 -11 -4
-27 0 -34 5 -7 4 -24 -1 -37 -5 -14 -5 -23 1 -23 5 0 7 -6 5 -13 -9 -23 -11
-137 -2 -137 4 0 5 -5 1 -11 -4 -7 -8 -170 -10 -363 -4 -495 -18 -1426 -29
-1886 -2 -80 -4 -166 -4 -193 l-1 -47 -2640 2640 c-2606 2606 -2640 2640
-2641 2603 -2 -135 -17 -528 -25 -668 -3 -49 -7 -126 -9 -170 -2 -44 -4 -80
-5 -80 -1 0 -3 -29 -5 -65 -9 -156 -18 -282 -30 -415 -2 -27 -7 -81 -10 -120
-3 -38 -8 -86 -10 -105 -3 -19 -7 -66 -10 -105 -3 -38 -7 -79 -10 -90 -2 -11
-4 -28 -4 -38 -1 -14 -4 -15 -20 -6 -10 7 -24 22 -32 34 -14 23 -78 98 -174
204 -27 31 -142 148 -255 261 -230 230 -312 306 -549 503 -25 21 -56 47 -69
57 -13 11 -37 29 -55 42 -18 12 -34 25 -37 28 -3 3 -33 27 -68 54 l-62 47 0
-4228 0 -4229 20 -17 c12 -10 18 -21 16 -26 -12 -19 27 -34 84 -33 32 0 63 2
67 5 5 3 15 2 23 -3 8 -5 22 -5 32 1 12 6 18 6 18 0 0 -7 8 -7 24 -1 13 5 26
6 29 4 8 -9 70 -10 98 -3 15 4 32 3 40 -1 7 -5 21 -4 31 1 12 6 18 6 18 0 0
-7 8 -7 23 -2 12 5 30 5 41 2 10 -4 37 -5 60 -3 22 2 50 4 61 3 11 0 52 -1 90
0 39 0 77 0 85 0 8 0 44 -1 80 0 36 0 72 0 80 0 8 -1 44 -1 80 0 36 0 72 0 80
0 8 -1 44 -1 80 0 36 0 72 0 80 -1 85 -2 121 -1 128 4 4 2 14 1 22 -4 8 -5 22
-5 32 1 12 6 18 6 18 0 0 -7 8 -7 24 -1 13 5 26 6 29 4 8 -9 70 -10 98 -3 15
4 32 3 40 -1 7 -5 21 -4 31 1 12 6 18 6 18 0 0 -7 8 -7 23 -2 12 5 30 5 41 2
10 -4 37 -5 60 -3 53 6 66 5 93 -1 13 -3 26 -1 29 5 4 6 8 538 9 1182 2 644 4
1192 6 1219 2 26 0 47 -4 47 -5 0 -5 5 -1 11 4 7 9 105 11 218 6 390 10 487
17 499 4 7 2 12 -4 12 -6 0 -9 8 -6 18 3 9 8 98 11 197 13 401 24 692 30 800
8 137 18 361 19 437 0 43 3 78 6 78 3 0 5 33 6 73 1 67 9 234 19 402 3 39 7
106 10 149 3 44 7 81 9 84 3 2 24 -16 48 -41 53 -55 444 -459 628 -648 74 -76
218 -225 320 -330 102 -105 237 -244 300 -309 63 -65 214 -221 335 -346 121
-125 256 -264 300 -309 44 -45 188 -193 320 -329 132 -137 290 -299 350 -361
61 -62 216 -222 345 -356 129 -133 269 -277 310 -319 41 -43 181 -187 310
-320 129 -133 278 -286 330 -340 52 -53 199 -204 325 -335 127 -130 268 -277
315 -325 88 -90 473 -488 593 -611 57 -59 67 -66 68 -47 0 13 2 61 4 108 2 47
6 159 10 250 3 91 8 215 11 275 2 61 6 170 9 244 2 73 6 136 9 139 3 2 1 12
-4 22 -5 10 -6 20 -3 24 4 4 8 43 9 89 1 45 5 152 8 237 4 85 8 211 11 280 10
275 15 373 19 378 3 2 29 -22 58 -54 62 -69 478 -486 559 -560 161 -147 260
-235 323 -286 12 -10 28 -24 36 -31 33 -31 200 -167 204 -167 3 0 18 -12 34
-28 15 -15 45 -38 65 -52 20 -14 37 -28 37 -32 0 -5 5 -8 10 -8 6 0 20 -9 32
-20 12 -11 25 -20 29 -20 10 0 17 70 7 76 -4 3 -3 16 2 29 5 13 6 27 1 29 -4
3 -5 26 -1 50 4 25 3 51 -1 58 -4 6 -3 20 2 29 5 10 5 20 1 23 -5 3 -6 26 -2
50 4 25 3 51 -1 58 -4 6 -3 20 2 29 5 10 5 20 1 23 -5 3 -6 26 -2 50 4 25 3
51 -1 58 -4 6 -3 20 2 29 5 10 5 20 0 23 -4 3 -5 23 -1 45 4 21 3 46 -2 54 -5
9 -4 18 2 22 7 4 7 12 0 25 -7 13 -7 21 0 25 6 4 7 12 1 22 -5 9 -5 29 0 45 4
17 4 26 -2 23 -5 -4 -5 3 0 17 5 14 5 31 0 40 -5 9 -6 19 -1 22 6 3 8 61 2 61
-1 0 -2 21 -3 48 -1 26 0 47 3 47 7 0 3 76 -4 89 -4 5 -2 12 4 16 7 4 7 12 0
25 -7 13 -7 21 0 25 6 4 7 12 1 22 -5 9 -5 29 0 45 4 17 4 26 -2 23 -5 -4 -5
3 0 17 5 14 5 31 0 40 -5 9 -6 19 -1 22 6 3 8 61 2 61 -1 0 -2 21 -3 48 -1 26
0 47 3 47 7 0 3 76 -4 89 -4 5 -2 12 4 16 7 4 7 12 0 25 -7 13 -7 21 0 25 6 4
7 12 1 22 -5 9 -5 29 0 45 4 17 4 26 -2 23 -5 -4 -5 3 0 17 5 14 5 31 0 40 -5
9 -6 19 -1 22 6 3 8 61 2 61 -1 0 -2 21 -3 48 -1 26 0 47 3 47 7 0 3 76 -4 89
-4 5 -2 12 4 16 7 4 7 12 0 25 -7 13 -7 21 0 25 6 4 7 12 1 22 -5 9 -5 29 0
45 4 17 4 26 -2 23 -5 -4 -5 3 0 17 5 14 5 31 0 40 -5 9 -6 19 -1 22 6 3 8 61
2 61 -1 0 -2 21 -3 48 -1 26 0 47 3 47 7 0 3 76 -4 89 -4 5 -2 12 4 16 7 4 7
12 0 25 -7 13 -7 21 0 25 6 4 7 12 1 22 -5 9 -5 29 0 45 4 17 4 26 -2 23 -5
-4 -5 3 0 17 5 14 5 31 0 40 -5 9 -6 19 -1 22 6 3 8 61 2 61 -1 0 -2 21 -3 48
-1 26 0 47 3 47 7 0 4 89 -3 97 -4 3 -2 13 3 22 5 10 5 23 1 30 -5 7 -5 30 -1
51 4 21 4 44 -1 51 -4 7 -3 21 2 30 5 10 5 20 1 23 -5 3 -6 26 -2 50 4 25 3
51 -1 58 -4 6 -3 20 2 29 5 10 5 20 1 23 -5 3 -6 26 -2 50 4 25 3 51 -1 58 -4
6 -3 20 2 29 5 10 5 20 1 23 -5 3 -6 26 -2 50 4 25 3 51 -1 58 -4 6 -3 20 2
29 5 10 5 20 1 23 -5 3 -6 26 -2 50 4 25 3 51 -1 58 -4 6 -3 20 2 29 5 10 5
20 1 23 -5 3 -6 26 -2 50 4 25 3 51 -1 58 -4 6 -3 20 2 29 5 10 5 20 1 23 -5
3 -6 26 -2 50 4 25 3 51 -1 58 -4 6 -3 20 2 29 5 10 5 20 1 23 -5 3 -6 26 -2
50 4 25 3 51 -1 58 -4 6 -3 20 2 29 5 10 5 20 0 23 -4 3 -5 23 -1 45 4 21 3
46 -2 54 -5 9 -4 18 2 22 7 4 7 12 0 25 -7 13 -7 21 0 25 6 4 7 12 1 22 -5 9
-5 29 0 45 4 17 4 26 -2 23 -5 -4 -5 3 0 17 5 14 5 31 0 40 -5 9 -6 19 -1 22
6 3 8 61 2 61 -1 0 -2 21 -3 48 -1 26 0 47 3 47 7 0 3 76 -4 89 -4 5 -2 12 4
16 7 4 7 12 0 25 -7 13 -7 21 0 25 6 4 7 12 1 22 -5 9 -5 29 0 45 4 17 4 26
-2 23 -5 -4 -5 3 0 17 5 14 5 31 0 40 -5 9 -6 19 -1 22 6 3 8 61 2 61 -1 0 -2
21 -3 48 -1 26 0 47 3 47 7 0 3 76 -4 89 -4 5 -2 12 4 16 7 4 7 12 0 25 -7 13
-7 21 0 25 6 4 7 12 1 22 -5 9 -5 29 0 45 4 17 4 26 -2 23 -5 -4 -5 3 0 17 5
14 5 31 0 40 -5 9 -6 19 -1 22 6 3 8 61 2 61 -1 0 -2 21 -3 48 -1 26 0 47 3
47 7 0 3 76 -4 89 -4 5 -2 12 4 16 7 4 7 12 0 25 -7 13 -7 21 0 25 6 4 7 12 1
22 -5 9 -5 29 0 45 4 17 4 26 -2 23 -5 -4 -5 3 0 17 5 14 5 31 0 40 -5 9 -6
19 -1 22 6 3 8 61 2 61 -1 0 -2 21 -3 48 -1 26 0 47 3 47 7 0 3 76 -4 89 -4 5
-2 12 4 16 7 4 7 12 0 25 -7 13 -7 21 0 25 6 4 7 12 1 22 -5 9 -5 29 0 45 4
17 4 26 -2 23 -5 -4 -5 3 0 17 5 14 5 31 0 40 -5 9 -6 19 -1 22 6 3 8 61 2 61
-1 0 -2 21 -3 48 -1 26 0 47 3 47 7 0 4 89 -3 97 -4 3 -2 13 3 22 5 10 5 23 1
30 -5 7 -5 30 -1 51 4 21 4 44 -1 51 -4 7 -3 21 2 30 5 10 5 20 1 23 -5 3 -6
26 -2 50 4 25 3 51 -1 58 -4 6 -3 20 2 29 5 10 5 20 1 23 -5 3 -6 26 -2 50 4
25 3 51 -1 58 -4 6 -3 20 2 29 5 10 5 20 1 23 -5 3 -6 26 -2 50 4 25 3 51 -1
58 -4 6 -3 20 2 29 5 10 5 20 1 23 -5 3 -6 26 -2 50 4 25 3 51 -1 58 -4 6 -3
20 2 29 5 10 5 20 1 23 -5 3 -6 26 -2 50 4 25 3 51 -1 58 -4 6 -3 20 2 29 5
10 5 20 1 23 -5 3 -6 26 -2 50 4 25 3 51 -1 58 -4 6 -3 20 2 29 5 10 5 20 1
23 -5 3 -6 26 -2 50 4 25 3 51 -1 58 -4 6 -3 20 2 29 5 10 5 20 0 23 -4 3 -6
17 -3 31 l4 25 -1040 0 c-1031 0 -1040 0 -1045 -20z m1056 -581 c34 0 67 0 72
1 6 1 14 2 19 1 23 -5 137 -4 141 1 11 11 70 -8 70 -22 0 -8 5 -18 10 -22 6
-5 5 -8 -2 -8 -9 0 -10 -7 -3 -25 6 -15 6 -25 0 -25 -5 0 -5 -12 0 -30 5 -19
5 -30 -1 -30 -7 0 -7 -6 0 -17 6 -11 6 -24 0 -35 -5 -10 -6 -18 -1 -18 4 0 7
-19 5 -42 -2 -24 -3 -47 -3 -53 0 -5 1 -29 3 -52 2 -24 -1 -43 -6 -43 -6 0 -6
-5 0 -12 5 -7 8 -29 6 -48 -2 -19 -3 -39 -3 -45 5 -186 3 -1678 -3 -1682 -4
-2 -4 -10 0 -16 11 -17 10 -237 -1 -237 -5 0 -4 -6 1 -12 10 -15 10 -189 -1
-206 -4 -7 -4 -12 1 -12 10 0 9 -93 -1 -109 -4 -6 -3 -11 2 -11 10 0 8 -42 -3
-59 -3 -6 -2 -11 3 -11 9 0 7 -65 -4 -82 -4 -6 -3 -9 2 -5 9 5 9 -106 0 -130
-3 -7 -1 -15 5 -18 5 -4 6 -11 3 -17 -4 -5 -8 -231 -10 -502 -3 -473 -8 -950
-19 -1596 -3 -168 -7 -424 -10 -569 -2 -145 -6 -265 -8 -268 -3 -2 -129 120
-281 271 l-276 276 -6 253 c-11 558 -25 1441 -30 1952 -2 220 -4 406 -4 413 0
6 0 22 0 35 0 12 -1 61 -2 108 -1 47 1 90 5 95 3 6 2 16 -3 24 -5 8 -5 22 1
32 5 10 6 18 2 18 -4 0 -8 16 -8 35 0 19 4 35 8 35 5 0 5 6 0 13 -10 17 -10
129 0 145 5 6 6 12 1 12 -6 0 -10 1707 -4 1890 0 8 -1 35 -3 60 -1 25 1 51 6
58 5 6 6 12 1 12 -11 0 -11 91 0 108 4 7 3 12 -2 12 -10 0 -8 42 3 59 3 6 3
11 -2 11 -4 0 -8 11 -8 25 0 14 3 25 7 25 4 0 4 10 -1 22 -4 11 -6 31 -3 44 4
22 7 23 123 22 66 0 122 2 126 5 3 4 10 4 14 1 5 -3 37 -5 72 -5z m-5651
-1156 c14 -16 107 -107 207 -203 101 -96 232 -222 291 -280 59 -58 233 -226
385 -375 361 -351 1685 -1675 2022 -2021 432 -444 452 -465 628 -648 94 -98
208 -217 255 -265 98 -102 368 -385 420 -440 19 -21 90 -96 157 -167 192 -203
199 -212 200 -242 0 -15 3 -47 6 -72 19 -131 33 -423 21 -441 -2 -4 0 -10 6
-14 6 -4 7 -11 4 -17 -4 -6 -8 -67 -10 -137 -2 -69 -6 -144 -8 -166 -5 -63
-18 -179 -21 -195 -2 -8 -4 -21 -4 -28 -1 -14 -277 257 -1145 1124 -697 697
-1314 1323 -1956 1984 -135 139 -279 287 -320 330 -41 42 -158 164 -260 270
-102 106 -223 232 -270 281 -47 48 -140 146 -206 216 -224 236 -293 308 -324
338 -38 37 -80 88 -81 98 0 7 -2 19 -3 27 -3 15 -13 129 -22 250 -3 36 -7 110
-9 165 -2 55 -4 100 -5 100 -1 0 -3 120 -3 268 -1 147 2 267 6 267 5 0 5 5 2
10 -13 21 13 9 37 -17z m-1446 -630 c11 -10 40 -34 64 -53 79 -60 348 -320
333 -320 -3 0 3 -8 14 -17 11 -10 47 -54 81 -98 34 -44 68 -87 75 -95 23 -27
77 -114 77 -125 1 -5 3 -113 5 -240 3 -126 7 -351 10 -500 10 -527 17 -1035
19 -1426 1 -217 6 -401 10 -407 4 -7 3 -12 -1 -12 -10 0 -10 -47 0 -56 3 -3 2
-17 -3 -30 -6 -14 -6 -26 0 -29 7 -4 6 -13 0 -25 -6 -12 -7 -21 0 -25 6 -3 6
-15 0 -30 -6 -15 -6 -27 0 -30 7 -4 6 -13 0 -26 -6 -10 -7 -19 -3 -19 4 0 8
-11 8 -25 0 -14 -4 -25 -8 -25 -5 0 -5 -5 -1 -12 10 -16 11 -138 1 -138 -5 0
-5 -5 -1 -12 12 -18 11 -188 -1 -188 -7 0 -7 -3 0 -8 13 -9 14 -1692 1 -1692
-5 0 -4 -6 1 -12 4 -7 7 -47 6 -88 -4 -96 -3 -77 -2 -215 0 -66 0 -127 0 -136
-1 -13 -12 -17 -46 -17 -25 -1 -49 -3 -53 -5 -4 -3 -16 -1 -27 3 -11 4 -30 4
-42 -1 -12 -5 -25 -4 -27 0 -3 5 -25 5 -48 1 -24 -5 -50 -5 -58 -1 -19 8 -42
8 -57 -2 -6 -4 -14 -3 -18 3 -4 6 -11 8 -16 4 -9 -5 -64 -7 -119 -3 -8 1 -31
0 -50 0 -19 -1 -50 0 -68 2 -18 2 -35 0 -37 -4 -3 -3 -15 -4 -28 -2 -21 4 -24
10 -24 49 0 25 -3 47 -6 51 -4 3 -2 14 3 24 6 10 6 20 2 23 -5 3 -6 26 -2 50
4 25 3 51 -1 58 -4 6 -3 20 2 29 5 10 5 20 1 23 -5 3 -6 28 -2 56 4 27 2 50
-2 50 -5 0 -5 8 1 17 6 11 6 24 0 35 -5 9 -6 19 -1 22 6 3 8 61 2 61 -1 0 -2
21 -3 48 -1 26 1 47 4 47 7 0 3 55 -5 69 -4 5 -2 12 4 16 7 4 7 12 1 23 -5 9
-6 23 -1 32 5 9 5 22 1 29 -5 7 -5 28 -1 47 5 20 4 34 -2 34 -5 0 -5 7 1 17 6
11 6 24 0 35 -5 9 -6 19 -1 22 6 3 8 61 2 61 -1 0 -2 21 -3 48 -1 26 0 47 3
47 5 0 4 58 0 70 -1 3 -1 10 0 15 6 26 5 77 -2 88 -3 6 -3 18 2 28 5 9 7 19 3
22 -7 8 -10 97 -3 97 7 0 4 89 -3 97 -4 3 -2 13 3 22 5 10 5 23 1 29 -4 7 -5
33 -1 58 4 24 3 47 -2 50 -4 3 -4 13 1 23 5 9 6 23 2 30 -5 7 -5 30 -1 51 4
21 4 44 -1 51 -4 7 -3 21 2 30 5 10 5 20 1 23 -5 3 -6 28 -2 56 4 27 2 50 -2
50 -5 0 -5 8 1 17 6 11 6 24 0 35 -5 9 -6 19 -1 22 6 3 8 61 2 61 -1 0 -2 21
-3 48 -1 26 1 47 4 47 7 0 3 55 -5 69 -4 5 -2 12 4 16 7 4 7 12 1 23 -5 9 -6
23 -1 32 5 9 5 22 1 29 -5 7 -5 28 -1 47 4 19 4 37 -1 40 -5 3 -5 12 0 23 5 9
6 23 2 29 -4 7 -5 33 -1 58 4 24 3 47 -2 50 -4 3 -4 13 1 23 5 9 6 23 2 29 -4
7 -5 33 -1 57 4 25 3 45 -2 45 -5 0 -5 8 1 17 6 11 6 24 0 35 -5 9 -6 19 -1
22 6 3 8 61 2 61 -1 0 -2 21 -3 48 -1 26 0 47 3 47 5 0 4 58 0 70 -1 3 -1 10
0 15 6 26 5 77 -2 88 -3 6 -3 18 2 28 5 9 7 19 3 22 -7 8 -10 97 -3 97 7 0 3
90 -4 97 -3 3 -1 14 4 24 6 10 6 20 2 23 -5 3 -6 28 -2 56 4 27 2 50 -2 50 -5
0 -5 8 1 17 6 11 6 24 0 35 -5 9 -6 19 -1 22 6 3 8 61 2 61 -1 0 -2 21 -3 48
-1 26 1 47 4 47 7 0 3 55 -5 69 -4 5 -2 12 4 16 7 4 7 12 1 23 -5 9 -6 23 -1
32 5 9 5 22 0 29 -4 8 -4 26 0 41 4 15 4 33 0 41 -5 7 -4 21 1 30 5 10 5 20 1
23 -5 3 -6 28 -2 56 4 27 2 50 -2 50 -5 0 -5 8 1 17 6 11 6 24 0 35 -5 9 -6
19 -1 22 6 3 8 61 2 61 -1 0 -2 21 -3 48 -1 26 1 47 4 47 7 0 3 55 -5 69 -4 5
-2 12 4 16 7 4 7 12 1 23 -5 9 -6 23 -1 32 5 9 5 22 1 29 -5 7 -5 28 -1 47 5
20 4 34 -2 34 -5 0 -5 7 1 17 6 11 6 24 0 35 -5 9 -6 19 -1 22 6 3 8 61 2 61
-1 0 -2 21 -3 48 -1 26 0 47 3 47 5 0 4 58 0 70 -1 3 -1 10 0 15 6 26 5 77 -2
88 -3 6 -3 18 2 28 5 9 7 19 3 22 -7 8 -10 97 -3 97 7 0 4 89 -3 97 -4 3 -2
13 3 22 5 10 5 23 1 29 -4 7 -5 33 -1 58 4 24 3 47 -2 50 -4 3 -4 13 1 23 5 9
6 23 2 30 -5 7 -5 30 -1 51 4 21 4 44 -1 51 -4 7 -3 21 2 30 5 10 5 20 1 23
-5 3 -6 28 -2 56 4 27 2 50 -2 50 -5 0 -5 8 1 17 6 11 6 24 0 35 -5 9 -6 19
-1 22 6 3 8 61 2 61 -1 0 -2 21 -3 48 -1 26 0 47 3 47 4 0 4 16 2 35 -5 39 5
44 34 18z"/>
</g>
</svg>
